<?xml version="1.0" standalone="no"?>
<!DOCTYPE svg PUBLIC "-//W3C//DTD SVG 20010904//EN"
 "http://www.w3.org/TR/2001/REC-SVG-20010904/DTD/svg10.dtd">
<svg version="1.0" xmlns="http://www.w3.org/2000/svg"
 width="470.000000pt" height="470.000000pt" viewBox="0 0 470.000000 470.000000"
 preserveAspectRatio="xMidYMid meet">
<metadata>
Created by potrace 1.11, written by Peter Selinger 2001-2013
</metadata>
<g transform="translate(0.000000,470.000000) scale(0.100000,-0.100000)"
fill="#000000" stroke="none">
<path d="M3780 4525 c0 -5 -17 -28 -38 -50 -127 -133 -253 -349 -415 -710 -80
-178 -149 -320 -160 -326 -5 -4 -40 1 -76 11 -65 18 -154 34 -241 45 -66 8
-926 9 -985 1 -131 -18 -195 -29 -257 -46 l-68 -19 -25 42 c-20 36 -58 114
-150 312 -72 156 -183 378 -206 412 -16 23 -29 45 -29 48 0 19 -98 148 -168
224 l-53 56 -29 -35 c-44 -50 -105 -175 -123 -250 -19 -77 -34 -196 -42 -335
-8 -143 -29 -317 -39 -334 -4 -6 -11 -101 -21 -268 -3 -49 -8 -119 -11 -156
-6 -71 -8 -73 -103 -182 -248 -285 -388 -508 -465 -742 -90 -276 -98 -428 -27
-575 77 -161 239 -448 310 -548 17 -25 49 -70 70 -100 22 -30 74 -98 116 -150
42 -52 88 -119 103 -149 39 -82 92 -126 262 -220 140 -78 201 -108 310 -154
100 -42 297 -94 425 -112 22 -4 65 -10 95 -15 106 -17 244 -22 610 -22 406 0
493 4 685 33 273 41 545 138 760 273 28 17 75 44 105 60 75 39 115 80 150 151
16 34 38 70 48 80 10 11 68 85 128 165 125 165 213 301 304 475 35 66 80 153
101 192 60 114 73 169 66 293 -10 169 -70 363 -174 560 -74 140 -111 193 -277
398 -78 96 -151 186 -162 200 -18 22 -23 46 -28 127 -7 103 -26 299 -51 535
-8 74 -17 173 -20 220 -12 184 -18 228 -45 310 -15 47 -44 115 -64 150 -36 67
-95 143 -96 125z"/>
</g>
</svg>
